<?xml version="1.0" encoding="UTF-8" standalone="no"?>
<!-- Created with Inkscape (http://www.inkscape.org/) -->

<svg
   xmlns:dc="http://purl.org/dc/elements/1.1/"
   xmlns:cc="http://creativecommons.org/ns#"
   xmlns:rdf="http://www.w3.org/1999/02/22-rdf-syntax-ns#"
   xmlns:svg="http://www.w3.org/2000/svg"
   xmlns="http://www.w3.org/2000/svg"
   xmlns:xlink="http://www.w3.org/1999/xlink"
   xmlns:sodipodi="http://sodipodi.sourceforge.net/DTD/sodipodi-0.dtd"
   xmlns:inkscape="http://www.inkscape.org/namespaces/inkscape"
   width="284"
   height="284"
   id="svg2"
   version="1.1"
   inkscape:version="0.48.5 r10040"
   inkscape:export-filename="/home/sonlink/proyectos/FireJamendo/firejamendo/img/icons/icon16x16.png"
   inkscape:export-xdpi="24"
   inkscape:export-ydpi="24"
   sodipodi:docname="icon.svg">
  <defs
     id="defs4">
    <linearGradient
       inkscape:collect="always"
       id="linearGradient3870">
      <stop
         style="stop-color:#ffffff;stop-opacity:1;"
         offset="0"
         id="stop3872" />
      <stop
         style="stop-color:#ffffff;stop-opacity:0;"
         offset="1"
         id="stop3874" />
    </linearGradient>
    <linearGradient
       inkscape:collect="always"
       id="linearGradient3912">
      <stop
         style="stop-color:#666666;stop-opacity:1;"
         offset="0"
         id="stop3914" />
      <stop
         style="stop-color:#666666;stop-opacity:0;"
         offset="1"
         id="stop3916" />
    </linearGradient>
    <linearGradient
       inkscape:collect="always"
       xlink:href="#linearGradient3912"
       id="linearGradient3918"
       x1="42.551723"
       y1="-5.582375"
       x2="10.735632"
       y2="-42.333332"
       gradientUnits="userSpaceOnUse" />
    <linearGradient
       inkscape:collect="always"
       xlink:href="#linearGradient3870"
       id="linearGradient3876"
       x1="254.93602"
       y1="58.840736"
       x2="128.25125"
       y2="-133.68323"
       gradientUnits="userSpaceOnUse" />
  </defs>
  <sodipodi:namedview
     id="base"
     pagecolor="#ffffff"
     bordercolor="#666666"
     borderopacity="1.0"
     inkscape:pageopacity="0.0"
     inkscape:pageshadow="2"
     inkscape:zoom="1"
     inkscape:cx="130.36228"
     inkscape:cy="20.600787"
     inkscape:document-units="px"
     inkscape:current-layer="layer2"
     showgrid="false"
     inkscape:window-width="1862"
     inkscape:window-height="1028"
     inkscape:window-x="58"
     inkscape:window-y="26"
     inkscape:window-maximized="1"
     inkscape:snap-from-guide="true"
     objecttolerance="10000">
    <inkscape:grid
       type="xygrid"
       id="grid3801"
       empspacing="5"
       visible="true"
       enabled="true"
       snapvisiblegridlinesonly="true"
       dotted="false" />
  </sodipodi:namedview>
  <metadata
     id="metadata7">
    <rdf:RDF>
      <cc:Work
         rdf:about="">
        <dc:format>image/svg+xml</dc:format>
        <dc:type
           rdf:resource="http://purl.org/dc/dcmitype/StillImage" />
        <dc:title />
      </cc:Work>
    </rdf:RDF>
  </metadata>
  <g
     inkscape:label="Capa 1"
     inkscape:groupmode="layer"
     id="layer1"
     transform="translate(0,-768.36218)"
     style="display:inline" />
  <g
     inkscape:groupmode="layer"
     id="layer2"
     inkscape:label="Capa"
     style="display:inline"
     transform="translate(0,224)">
    <g
       id="g3878">
      <path
         transform="matrix(6.3569769,0,0,5.1575473,1489.3489,-775.12081)"
         d="m -189.6104,134.38962 a 22.337662,27.532467 0 1 1 -44.67532,0 22.337662,27.532467 0 1 1 44.67532,0 z"
         sodipodi:ry="27.532467"
         sodipodi:rx="22.337662"
         sodipodi:cy="134.38962"
         sodipodi:cx="-211.94806"
         id="path3000"
         style="fill:#522a5b;fill-opacity:1;stroke:none"
         sodipodi:type="arc" />
      <path
         id="path3000-9"
         d="m 244.74906,-179.90625 -9.5,0.6875 c -40.13955,2.87295 -81.65722,26.45836 -107.96875,61.34375 -9.06789,12.02274 -21.13755,35.98579 -25.0625,49.78125 -10.899559,38.3099 -7.754009,79.21597 8.8125,114.96875 2.06539,4.4574 4.60919,9.64869 5.84375,11 6.52493,1.16552 13.19889,1.88345 20,2.125 2.54231,-0.005 5.16989,-0.033 7.6875,-0.0625 5.13563,-0.0603 10.18735,-0.37619 15.1875,-0.96875 0.11391,-0.0135 0.22992,-0.0175 0.34375,-0.0313 1.71709,-0.20771 3.4263,-0.48123 5.125,-0.75 0.16603,-0.0273 0.33416,-0.0346 0.5,-0.0625 0.46851,-0.0758 0.93921,-0.16955 1.40625,-0.25 65.25922,-11.65694 115.10138,-67.90284 116.84375,-136.09375 1e-4,-0.01 -10e-5,-0.0217 0,-0.0313 5.3e-4,-0.0208 -5.2e-4,-0.0417 0,-0.0625 0.0118,-1.10417 0.0257,-2.36865 0.0313,-3.59375 0,-0.28276 0.002,-0.56138 0,-0.84375 -0.2201,-37.65229 -15.10498,-71.83298 -39.21875,-97.125 -0.0102,-0.0107 -0.0211,-0.0206 -0.0313,-0.0313 z"
         style="fill:url(#linearGradient3876);fill-opacity:1;stroke:none;display:inline;opacity:0.12000000000000000"
         inkscape:connector-curvature="0" />
      <path
         inkscape:transform-center-y="0.23320686"
         inkscape:transform-center-x="-3.5795327"
         transform="matrix(0,3.2339723,-3.2339723,0,186.90419,-179.30961)"
         d="M 6.6666679,29 C 4.4323224,25.362694 24.986463,-12.590911 29.253635,-12.707258 33.520808,-12.823605 56.112524,23.953606 54.079697,27.707259 52.04687,31.460912 8.9010134,32.637307 6.6666679,29 z"
         inkscape:randomized="0"
         inkscape:rounded="0.09"
         inkscape:flatsided="true"
         sodipodi:arg2="3.6379327"
         sodipodi:arg1="2.5907351"
         sodipodi:r2="13.69205"
         sodipodi:r1="27.384098"
         sodipodi:cy="14.666667"
         sodipodi:cx="30"
         sodipodi:sides="3"
         id="path3761"
         style="opacity:0.94;color:#000000;fill:#ffffff;fill-opacity:1;fill-rule:evenodd;stroke:none;stroke-width:2;marker:none;visibility:visible;display:inline;overflow:visible;enable-background:accumulate"
         sodipodi:type="star" />
    </g>
  </g>
</svg>
